HIERARCHY
ROOT Hips
{
	OFFSET 0.000000 0.000000 0.000000
	CHANNELS 6 Xposition Yposition Zposition Zrotation Yrotation Xrotation 
	JOINT LHipJoint
	{
		OFFSET 0.000000 0.000000 0.000000
		CHANNELS 3 Zrotation Yrotation Xrotation
		JOINT LeftUpLeg
		{
			OFFSET 1.363060 -1.794630 0.839290
			CHANNELS 3 Zrotation Yrotation Xrotation
			JOINT LeftLeg
			{
				OFFSET 2.448110 -6.726130 0.000000
				CHANNELS 3 Zrotation Yrotation Xrotation
				JOINT LeftFoot
				{
					OFFSET 2.562200 -7.039590 0.000000
					CHANNELS 3 Zrotation Yrotation Xrotation
					JOINT LeftToeBase
					{
						OFFSET 0.157640 -0.433110 2.322550
						CHANNELS 3 Zrotation Yrotation Xrotation
						End Site
						{
							OFFSET 0.000000 0.000000 0.000000
						}
					}
				}
			}
		}
	}
	JOINT RHipJoint
	{
		OFFSET 0.000000 0.000000 0.000000
		CHANNELS 3 Zrotation Yrotation Xrotation
		JOINT RightUpLeg
		{
			OFFSET -1.305520 -1.794630 0.839290
			CHANNELS 3 Zrotation Yrotation Xrotation
			JOINT RightLeg
			{
				OFFSET -2.542530 -6.985550 0.000000
				CHANNELS 3 Zrotation Yrotation Xrotation
				JOINT RightFoot
				{
					OFFSET -2.568260 -7.056230 0.000000
					CHANNELS 3 Zrotation Yrotation Xrotation
					JOINT RightToeBase
					{
						OFFSET -0.164730 -0.452590 2.363150
						CHANNELS 3 Zrotation Yrotation Xrotation
						End Site
						{
							OFFSET 0.000000 0.000000 0.000000
						}
					}
				}
			}
		}
	}
	JOINT LowerBack
	{
		OFFSET 0.000000 0.000000 0.000000
		CHANNELS 3 Zrotation Yrotation Xrotation
		JOINT Spine
		{
			OFFSET 0.028270 2.035590 -0.193380
			CHANNELS 3 Zrotation Yrotation Xrotation
			JOINT Spine1
			{
				OFFSET 0.056720 2.048850 -0.042750
				CHANNELS 3 Zrotation Yrotation Xrotation
				JOINT Neck
				{
					OFFSET 0.000000 0.000000 0.000000
					CHANNELS 3 Zrotation Yrotation Xrotation
					JOINT Neck1
					{
						OFFSET -0.054170 1.746240 0.172020
						CHANNELS 3 Zrotation Yrotation Xrotation
						JOINT Head
						{
							OFFSET 0.104070 1.761360 -0.123970
							CHANNELS 3 Zrotation Yrotation Xrotation
							End Site
							{
								OFFSET 0.000000 0.000000 0.000000
							}
						}
					}
				}
				JOINT LeftShoulder
				{
					OFFSET 0.000000 0.000000 0.000000
					CHANNELS 3 Zrotation Yrotation Xrotation
					JOINT LeftArm
					{
						OFFSET 3.362410 1.200890 -0.311210
						CHANNELS 3 Zrotation Yrotation Xrotation
						JOINT LeftForeArm
						{
							OFFSET 4.983000 -0.000000 -0.000000
							CHANNELS 3 Zrotation Yrotation Xrotation
							JOINT LeftHand
							{
								OFFSET 3.483560 -0.000000 -0.000000
								CHANNELS 3 Zrotation Yrotation Xrotation
								JOINT LeftFingerBase
								{
									OFFSET 0.000000 0.000000 0.000000
									CHANNELS 3 Zrotation Yrotation Xrotation
									JOINT LeftHandIndex1
									{
										OFFSET 0.715260 -0.000000 -0.000000
										CHANNELS 3 Zrotation Yrotation Xrotation
										End Site
										{
											OFFSET 0.000000 0.000000 0.000000
										}
									}
								}
								JOINT LThumb
								{
									OFFSET 0.000000 0.000000 0.000000
									CHANNELS 3 Zrotation Yrotation Xrotation
									End Site
									{
										OFFSET 0.000000 0.000000 0.000000
									}
								}
							}
						}
					}
				}
				JOINT RightShoulder
				{
					OFFSET 0.000000 0.000000 0.000000
					CHANNELS 3 Zrotation Yrotation Xrotation
					JOINT RightArm
					{
						OFFSET -3.136600 1.374050 -0.404650
						CHANNELS 3 Zrotation Yrotation Xrotation
						JOINT RightForeArm
						{
							OFFSET -5.241900 -0.000000 -0.000000
							CHANNELS 3 Zrotation Yrotation Xrotation
							JOINT RightHand
							{
								OFFSET -3.444170 -0.000000 -0.000000
								CHANNELS 3 Zrotation Yrotation Xrotation
								JOINT RightFingerBase
								{
									OFFSET 0.000000 0.000000 0.000000
									CHANNELS 3 Zrotation Yrotation Xrotation
									JOINT RightHandIndex1
									{
										OFFSET -0.622530 -0.000000 -0.000000
										CHANNELS 3 Zrotation Yrotation Xrotation
										End Site
										{
											OFFSET 0.000000 0.000000 0.000000
										}
									}
								}
								JOINT RThumb
								{
									OFFSET 0.000000 0.000000 0.000000
									CHANNELS 3 Zrotation Yrotation Xrotation
									End Site
									{
										OFFSET 0.000000 0.000000 0.000000
									}
								}
							}
						}
					}
				}
			}
		}
	}
}
MOTION
Frames: 8
Frame Time: 0.008333
12.502057 16.380166 0.816349 55.765661 -88.741972 -6.381761 -8.487074 0.571646 4.674148 -10.272961 -8.422550 -66.881010 -2.935287 0.244371 27.524713 3.362597 10.442110 -15.130715 -0.638000 -0.000000 -40.267099 8.666639 -0.031224 4.934540 8.023134 5.235489 -67.463249 3.631510 -1.301881 28.892846 -2.211199 -3.789722 -15.483721 0.179000 0.000000 -55.682599 2.401508 -2.004460 -7.145867 -0.064514 -2.449844 -4.383011 -5.226587 -2.671889 1.759294 10.187750 -10.163401 -15.100528 -2.213457 -0.043960 -2.560398 0.000000 0.000000 0.000000 -0.878261 11.354035 4.126841 -65.429192 7.249825 -22.163774 -1.325558 -20.157583 -0.027915 24.871663 -2.686577 -0.612437 -0.110129 0.078604 -0.000000 0.000000 0.000000 0.000000 0.000000 0.000000 0.000000 11.641482 -7.753423 4.084360 67.892607 -4.014284 -37.784203 0.973170 14.170805 -0.025309 -17.614612 11.895352 -1.894047 0.145207 -0.187050 -0.000000 0.000000 0.000000 0.000000 0.000000 0.000000 0.000000 
12.497753 16.327752 0.819027 57.413762 -88.655322 -7.379830 -8.458542 0.581132 4.759661 -10.318211 -8.742091 -68.185153 -2.951256 0.372709 28.612346 3.405633 10.308065 -15.729549 -0.756300 0.000000 -40.059600 8.675945 -0.025736 5.059998 7.788531 5.447730 -68.975461 3.581397 -1.506953 30.282777 -2.266726 -3.754379 -16.104303 0.252700 0.000000 -55.520701 2.353826 -2.016629 -7.326629 -0.075604 -2.466790 -4.438861 -5.220661 -2.692698 1.725461 10.215949 -10.114539 -15.150100 -2.220102 -0.043272 -2.588078 0.000000 0.000000 0.000000 -0.950406 11.273912 4.163450 -65.473463 7.087199 -22.115904 -1.295494 -20.182868 -0.028742 24.849297 -2.621856 -0.597943 -0.109991 0.080296 -0.000000 0.000000 0.000000 0.000000 0.000000 0.000000 0.000000 11.720500 -7.709811 4.119098 67.990964 -3.823750 -37.505277 0.946808 14.246513 -0.025773 -17.575817 11.865310 -1.885349 0.144958 -0.188561 -0.000000 0.000000 0.000000 0.000000 0.000000 0.000000 0.000000 
12.493879 16.270885 0.821135 59.273302 -88.542153 -8.584779 -8.428476 0.589397 4.842787 -10.376226 -9.089894 -69.547455 -2.962807 0.518832 29.825839 3.452593 10.170424 -16.386009 -0.887100 -0.000000 -39.868200 8.690445 -0.012923 5.177878 7.527268 5.627244 -70.562461 3.521526 -1.734800 31.812849 -2.321481 -3.701900 -16.779177 0.333800 -0.000000 -55.346600 2.287222 -2.036843 -7.497970 -0.091045 -2.489945 -4.493162 -5.214301 -2.719723 1.689648 10.243505 -10.068073 -15.195292 -2.226892 -0.042630 -2.614819 0.000000 0.000000 0.000000 -1.022930 11.178824 4.200176 -65.522933 6.948034 -22.069587 -1.265236 -20.270471 -0.029615 24.815603 -2.541028 -0.579650 -0.110085 0.082089 -0.000000 0.000000 0.000000 0.000000 0.000000 0.000000 0.000000 11.804361 -7.672729 4.153465 68.108210 -3.636648 -37.227372 0.919550 14.335059 -0.026202 -17.516512 11.845727 -1.876051 0.144621 -0.190210 -0.000000 0.000000 0.000000 0.000000 0.000000 0.000000 0.000000 
12.490319 16.208992 0.822648 61.294624 -88.399866 -9.948192 -8.397298 0.596679 4.924365 -10.445020 -9.472104 -70.970741 -2.967209 0.684230 31.175917 3.504483 10.034980 -17.098439 -1.030200 0.000001 -39.695500 8.710432 0.009378 5.287345 7.236700 5.769371 -72.225469 3.450076 -1.985996 33.490670 -2.375385 -3.634380 -17.507096 0.421600 0.000000 -55.164000 2.199077 -2.065530 -7.660347 -0.111329 -2.519498 -4.545044 -5.206724 -2.753075 1.655005 10.270615 -10.030093 -15.238556 -2.233153 -0.041928 -2.641242 0.000000 0.000000 0.000000 -1.092338 11.082464 4.235863 -65.578762 6.817783 -22.021786 -1.234993 -20.418526 -0.030526 24.774034 -2.456866 -0.560556 -0.110453 0.084018 -0.000000 0.000000 0.000000 0.000000 0.000000 0.000000 0.000000 11.893196 -7.649254 4.186124 68.241195 -3.448649 -36.957365 0.891464 14.432144 -0.026586 -17.435898 11.837908 -1.866453 0.144196 -0.191990 -0.000000 0.000000 0.000000 0.000000 0.000000 0.000000 0.000000 
12.487051 16.141549 0.823641 63.359985 -88.230208 -11.354285 -8.365959 0.603031 5.004755 -10.518623 -9.890076 -72.458099 -2.961131 0.870376 32.672018 3.561792 9.907096 -17.861863 -1.184700 0.000000 -39.543399 8.735461 0.043460 5.388435 6.915674 5.875361 -73.961055 3.364696 -2.259280 35.316923 -2.429467 -3.559542 -18.283005 0.515400 -0.000000 -54.980900 2.090339 -2.101455 -7.814453 -0.136358 -2.554261 -4.594260 -5.197761 -2.791510 1.622675 10.297233 -10.003678 -15.280934 -2.238807 -0.041148 -2.667532 0.000000 0.000000 0.000000 -1.157101 10.990093 4.269587 -65.641621 6.694372 -21.972014 -1.204869 -20.629558 -0.031455 24.728493 -2.380382 -0.543060 -0.111095 0.086075 -0.000000 0.000000 0.000000 0.000000 0.000000 0.000000 0.000000 11.987468 -7.642014 4.216735 68.386216 -3.261415 -36.702949 0.862673 14.536667 -0.026921 -17.333976 11.840469 -1.856055 0.143680 -0.193886 -0.000000 0.000000 0.000000 0.000000 0.000000 0.000000 0.000000 
12.484157 16.068114 0.824459 65.236718 -88.046683 -12.574916 -8.336476 0.607152 5.081714 -10.583679 -10.331805 -74.014722 -2.940659 1.079524 34.326584 3.623727 9.787835 -18.671853 -1.349500 -0.000000 -39.408900 8.762928 0.090562 5.481727 6.571273 5.960229 -75.753423 3.263319 -2.549789 37.276686 -2.486753 -3.493592 -19.097924 0.614500 -0.000000 -54.804500 1.971733 -2.139517 -7.958306 -0.163925 -2.589814 -4.639781 -5.187409 -2.830496 1.594542 10.323414 -9.998428 -15.325621 -2.243078 -0.040171 -2.694581 0.000000 0.000000 0.000000 -1.217258 10.909728 4.299808 -65.713549 6.567064 -21.922517 -1.174292 -20.895801 -0.032381 24.684213 -2.326183 -0.530663 -0.111969 0.088258 -0.000000 0.000000 0.000000 0.000000 0.000000 0.000000 0.000000 12.086367 -7.658922 4.245457 68.536401 -3.067936 -36.470496 0.833343 14.641239 -0.027214 -17.212142 11.851513 -1.844856 0.143080 -0.195895 -0.000000 0.000000 0.000000 0.000000 0.000000 0.000000 0.000000 
12.481240 15.987758 0.824812 67.074401 -87.831331 -13.754139 -8.306604 0.610468 5.162084 -10.642900 -10.824300 -75.639491 -2.902279 1.307994 36.130285 3.693301 9.696111 -19.511876 -1.522499 0.000000 -39.297700 8.797047 0.153701 5.569921 6.186156 6.006665 -77.624064 3.141503 -2.860841 39.393681 -2.546710 -3.438642 -19.948208 0.718600 -0.000000 -54.643800 1.832515 -2.185794 -8.102990 -0.196820 -2.632050 -4.686711 -5.178151 -2.876195 1.561013 10.346759 -9.981738 -15.360771 -2.251231 -0.039727 -2.718525 0.000000 0.000000 0.000000 -1.275471 10.800809 4.329299 -65.791360 6.508990 -21.875414 -1.144538 -21.265265 -0.033261 24.644900 -2.278964 -0.519964 -0.112976 0.090365 -0.000000 0.000000 0.000000 0.000000 0.000000 0.000000 0.000000 12.196960 -7.666238 4.274312 68.694768 -2.923084 -36.273560 0.803767 14.775884 -0.027470 -17.070346 11.860534 -1.831258 0.142346 -0.197916 -0.000000 0.000000 0.000000 0.000000 0.000000 0.000000 0.000000 
12.478660 15.900202 0.825290 68.555598 -87.612307 -14.582053 -8.279642 0.608376 5.238617 -10.673680 -11.335425 -77.337379 -2.841877 1.558241 38.097184 3.767557 9.625994 -20.379093 -1.703100 -0.000000 -39.196000 8.832197 0.232116 5.653231 5.778386 6.046424 -79.539486 2.998248 -3.182760 41.631535 -2.614497 -3.419204 -20.822686 0.828800 -0.000000 -54.498600 1.694774 -2.230745 -8.239822 -0.229634 -2.672621 -4.729467 -5.167575 -2.919913 1.534949 10.371364 -9.991868 -15.403772 -2.258034 -0.039018 -2.744792 0.000000 0.000000 0.000000 -1.328444 10.724643 4.354153 -65.874253 6.427514 -21.826876 -1.114099 -21.661240 -0.034103 24.618745 -2.275865 -0.519164 -0.114113 0.092572 -0.000000 0.000000 0.000000 0.000000 0.000000 0.000000 0.000000 12.314829 -7.701902 4.300376 68.844542 -2.774796 -36.103604 0.774259 14.906547 -0.027687 -16.916194 11.871824 -1.816559 0.141574 -0.199964 -0.000000 0.000000 0.000000 0.000000 0.000000 0.000000 0.000000 
